<svg xmlns="http://www.w3.org/2000/svg" xmlns:xlink="http://www.w3.org/1999/xlink" width="150" zoomAndPan="magnify" viewBox="0 0 112.5 74.999997" height="100" preserveAspectRatio="xMidYMid meet" version="1.0"><defs><g/></defs><g fill="#000000" fill-opacity="1"><g transform="translate(36.441204, 39.868247)"><g><path d="M 3.28125 2.171875 L 2.71875 1.328125 C 2.75 1.285156 2.785156 1.238281 2.828125 1.1875 C 2.867188 1.144531 2.953125 1.050781 3.078125 0.90625 C 3.210938 0.769531 3.34375 0.648438 3.46875 0.546875 C 3.601562 0.441406 3.753906 0.347656 3.921875 0.265625 C 4.085938 0.179688 4.238281 0.140625 4.375 0.140625 L 4.375 0.09375 C 3.15625 -0.144531 2.171875 -0.75 1.421875 -1.71875 C 0.671875 -2.695312 0.296875 -3.859375 0.296875 -5.203125 C 0.296875 -6.710938 0.796875 -7.984375 1.796875 -9.015625 C 2.804688 -10.054688 4.03125 -10.578125 5.46875 -10.578125 C 6.90625 -10.578125 8.125 -10.054688 9.125 -9.015625 C 10.125 -7.984375 10.625 -6.710938 10.625 -5.203125 C 10.625 -3.960938 10.289062 -2.875 9.625 -1.9375 C 8.96875 -1 8.097656 -0.363281 7.015625 -0.03125 L 7.015625 0.015625 C 7.066406 0.015625 7.289062 0.0507812 7.6875 0.125 C 8.082031 0.207031 8.394531 0.25 8.625 0.25 C 8.945312 0.25 9.238281 0.191406 9.5 0.078125 C 9.757812 -0.0351562 9.9375 -0.144531 10.03125 -0.25 L 10.1875 -0.421875 L 10.9375 1.171875 C 10.914062 1.210938 10.882812 1.265625 10.84375 1.328125 C 10.8125 1.390625 10.726562 1.5 10.59375 1.65625 C 10.457031 1.820312 10.304688 1.96875 10.140625 2.09375 C 9.984375 2.21875 9.765625 2.328125 9.484375 2.421875 C 9.210938 2.523438 8.921875 2.578125 8.609375 2.578125 C 8.097656 2.578125 7.472656 2.410156 6.734375 2.078125 C 5.992188 1.753906 5.359375 1.59375 4.828125 1.59375 C 4.523438 1.59375 4.242188 1.640625 3.984375 1.734375 C 3.734375 1.835938 3.554688 1.941406 3.453125 2.046875 Z M 2.84375 -5.203125 C 2.84375 -4.796875 2.890625 -4.414062 2.984375 -4.0625 C 3.078125 -3.71875 3.222656 -3.398438 3.421875 -3.109375 C 3.617188 -2.828125 3.890625 -2.601562 4.234375 -2.4375 C 4.585938 -2.28125 5 -2.203125 5.46875 -2.203125 C 6.34375 -2.203125 6.992188 -2.488281 7.421875 -3.0625 C 7.859375 -3.632812 8.078125 -4.347656 8.078125 -5.203125 C 8.078125 -6.046875 7.859375 -6.753906 7.421875 -7.328125 C 6.984375 -7.910156 6.332031 -8.203125 5.46875 -8.203125 C 4.613281 -8.203125 3.960938 -7.910156 3.515625 -7.328125 C 3.066406 -6.742188 2.84375 -6.035156 2.84375 -5.203125 Z M 2.84375 -5.203125 "/></g></g></g><g fill="#000000" fill-opacity="1"><g transform="translate(46.174479, 39.868247)"><g><path d="M 2.859375 -6.453125 L 2.859375 -3.390625 C 2.859375 -2.753906 2.953125 -2.300781 3.140625 -2.03125 C 3.335938 -1.757812 3.664062 -1.625 4.125 -1.625 C 4.59375 -1.625 4.921875 -1.757812 5.109375 -2.03125 C 5.304688 -2.300781 5.40625 -2.753906 5.40625 -3.390625 L 5.40625 -6.453125 L 7.625 -6.453125 L 7.625 -2.84375 C 7.625 -1.769531 7.34375 -0.992188 6.78125 -0.515625 C 6.226562 -0.046875 5.34375 0.1875 4.125 0.1875 C 2.90625 0.1875 2.015625 -0.046875 1.453125 -0.515625 C 0.898438 -0.992188 0.625 -1.769531 0.625 -2.84375 L 0.625 -6.453125 Z M 2.859375 -6.453125 "/></g></g></g><g fill="#000000" fill-opacity="1"><g transform="translate(53.250841, 39.868247)"><g><path d="M 0.96875 -10.0625 C 1.226562 -10.320312 1.535156 -10.453125 1.890625 -10.453125 C 2.253906 -10.453125 2.566406 -10.320312 2.828125 -10.0625 C 3.085938 -9.800781 3.21875 -9.488281 3.21875 -9.125 C 3.21875 -8.769531 3.085938 -8.460938 2.828125 -8.203125 C 2.566406 -7.941406 2.253906 -7.8125 1.890625 -7.8125 C 1.535156 -7.8125 1.226562 -7.941406 0.96875 -8.203125 C 0.707031 -8.460938 0.578125 -8.769531 0.578125 -9.125 C 0.578125 -9.488281 0.707031 -9.800781 0.96875 -10.0625 Z M 0.75 -6.453125 L 0.75 0 L 2.984375 0 L 2.984375 -6.453125 Z M 0.75 -6.453125 "/></g></g></g><g fill="#000000" fill-opacity="1"><g transform="translate(55.869634, 39.868247)"><g><path d="M 4.1875 -4.828125 C 3.769531 -4.828125 3.410156 -4.671875 3.109375 -4.359375 C 2.804688 -4.046875 2.65625 -3.671875 2.65625 -3.234375 C 2.65625 -2.785156 2.804688 -2.40625 3.109375 -2.09375 C 3.410156 -1.789062 3.769531 -1.640625 4.1875 -1.640625 C 4.394531 -1.640625 4.585938 -1.660156 4.765625 -1.703125 C 4.941406 -1.753906 5.070312 -1.804688 5.15625 -1.859375 L 5.28125 -1.9375 L 6.03125 -0.390625 C 5.96875 -0.347656 5.882812 -0.296875 5.78125 -0.234375 C 5.675781 -0.171875 5.4375 -0.0859375 5.0625 0.015625 C 4.695312 0.128906 4.296875 0.1875 3.859375 0.1875 C 2.910156 0.1875 2.078125 -0.144531 1.359375 -0.8125 C 0.648438 -1.476562 0.296875 -2.28125 0.296875 -3.21875 C 0.296875 -4.15625 0.648438 -4.960938 1.359375 -5.640625 C 2.078125 -6.316406 2.910156 -6.65625 3.859375 -6.65625 C 4.296875 -6.65625 4.691406 -6.601562 5.046875 -6.5 C 5.410156 -6.394531 5.664062 -6.296875 5.8125 -6.203125 L 6.03125 -6.046875 L 5.28125 -4.515625 C 5 -4.722656 4.632812 -4.828125 4.1875 -4.828125 Z M 4.1875 -4.828125 "/></g></g></g><g fill="#000000" fill-opacity="1"><g transform="translate(60.868315, 39.868247)"><g><path d="M 8.140625 -6.453125 L 5.0625 -3.375 L 8.4375 0 L 5.5625 0 L 2.984375 -2.578125 L 2.984375 0 L 0.75 0 L 0.75 -10.828125 L 2.984375 -10.828125 L 2.984375 -4.203125 L 5.234375 -6.453125 Z M 8.140625 -6.453125 "/></g></g></g><g fill="#000000" fill-opacity="1"><g transform="translate(67.818755, 39.868247)"><g><path d="M 5.28125 -10.390625 L 5.28125 -2.9375 C 5.28125 -1.914062 5 -1.140625 4.4375 -0.609375 C 3.882812 -0.078125 3.085938 0.1875 2.046875 0.1875 C 1.765625 0.1875 1.488281 0.148438 1.21875 0.078125 C 0.945312 0.015625 0.71875 -0.0625 0.53125 -0.15625 C 0.351562 -0.25 0.191406 -0.347656 0.046875 -0.453125 C -0.0976562 -0.554688 -0.207031 -0.640625 -0.28125 -0.703125 L -0.390625 -0.8125 L 0.359375 -2.78125 C 0.859375 -2.3125 1.3125 -2.078125 1.71875 -2.078125 C 2.070312 -2.078125 2.359375 -2.195312 2.578125 -2.4375 C 2.796875 -2.675781 2.90625 -3.039062 2.90625 -3.53125 L 2.90625 -10.390625 Z M 5.28125 -10.390625 "/></g></g></g><g fill="#000000" fill-opacity="1"><g transform="translate(72.540411, 39.868247)"><g><path d="M 1.359375 -0.765625 C 0.648438 -1.398438 0.296875 -2.21875 0.296875 -3.21875 C 0.296875 -4.21875 0.664062 -5.039062 1.40625 -5.6875 C 2.15625 -6.332031 3.082031 -6.65625 4.1875 -6.65625 C 5.269531 -6.65625 6.179688 -6.328125 6.921875 -5.671875 C 7.660156 -5.023438 8.03125 -4.207031 8.03125 -3.21875 C 8.03125 -2.226562 7.664062 -1.410156 6.9375 -0.765625 C 6.21875 -0.128906 5.300781 0.1875 4.1875 0.1875 C 3.019531 0.1875 2.078125 -0.128906 1.359375 -0.765625 Z M 3.09375 -4.3125 C 2.800781 -4.03125 2.65625 -3.664062 2.65625 -3.21875 C 2.65625 -2.78125 2.789062 -2.421875 3.0625 -2.140625 C 3.34375 -1.859375 3.710938 -1.71875 4.171875 -1.71875 C 4.609375 -1.71875 4.96875 -1.859375 5.25 -2.140625 C 5.53125 -2.421875 5.671875 -2.78125 5.671875 -3.21875 C 5.671875 -3.664062 5.523438 -4.03125 5.234375 -4.3125 C 4.941406 -4.601562 4.585938 -4.75 4.171875 -4.75 C 3.742188 -4.75 3.382812 -4.601562 3.09375 -4.3125 Z M 3.09375 -4.3125 "/></g></g></g><g fill="#000000" fill-opacity="1"><g transform="translate(79.679734, 39.868247)"><g><path d="M 1.140625 -6.453125 L 1.140625 -8.859375 L 3.359375 -8.859375 L 3.359375 -6.453125 L 4.71875 -6.453125 L 4.71875 -4.765625 L 3.359375 -4.765625 L 3.359375 -2.703125 C 3.359375 -2.109375 3.523438 -1.8125 3.859375 -1.8125 C 3.953125 -1.8125 4.039062 -1.828125 4.125 -1.859375 C 4.21875 -1.898438 4.289062 -1.9375 4.34375 -1.96875 L 4.421875 -2.015625 L 4.96875 -0.21875 C 4.488281 0.0507812 3.945312 0.1875 3.34375 0.1875 C 2.914062 0.1875 2.550781 0.113281 2.25 -0.03125 C 1.945312 -0.175781 1.71875 -0.375 1.5625 -0.625 C 1.40625 -0.875 1.296875 -1.132812 1.234375 -1.40625 C 1.171875 -1.675781 1.140625 -1.96875 1.140625 -2.28125 L 1.140625 -4.765625 L 0.203125 -4.765625 L 0.203125 -6.453125 Z M 1.140625 -6.453125 "/></g></g></g><g fill="#000000" fill-opacity="1"><g transform="translate(83.469579, 39.868247)"><g/></g></g><g fill="#000000" fill-opacity="1"><g transform="translate(85.723203, 39.868247)"><g><path d="M 2.1875 -2.6875 C 2.59375 -2.6875 2.9375 -2.546875 3.21875 -2.265625 C 3.5 -1.984375 3.640625 -1.644531 3.640625 -1.25 C 3.640625 -0.851562 3.5 -0.515625 3.21875 -0.234375 C 2.9375 0.046875 2.59375 0.1875 2.1875 0.1875 C 1.789062 0.1875 1.453125 0.046875 1.171875 -0.234375 C 0.890625 -0.515625 0.75 -0.851562 0.75 -1.25 C 0.75 -1.644531 0.890625 -1.984375 1.171875 -2.265625 C 1.453125 -2.546875 1.789062 -2.6875 2.1875 -2.6875 Z M 2.1875 -2.6875 "/></g></g></g><g fill="#000000" fill-opacity="1"><g transform="translate(47.721858, 46.118641)"><g><path d="M 1.25 -1.875 C 1.289062 -1.875 1.320312 -1.863281 1.34375 -1.84375 C 1.363281 -1.820312 1.375 -1.789062 1.375 -1.75 L 1.375 -0.125 C 1.375 -0.09375 1.363281 -0.0625 1.34375 -0.03125 C 1.320312 -0.0078125 1.289062 0 1.25 0 C 1.21875 0 1.191406 -0.0078125 1.171875 -0.03125 C 1.148438 -0.0507812 1.140625 -0.0820312 1.140625 -0.125 L 1.140625 -0.1875 C 1.097656 -0.125 1.035156 -0.0703125 0.953125 -0.03125 C 0.878906 0.0078125 0.800781 0.03125 0.71875 0.03125 C 0.601562 0.03125 0.5 0 0.40625 -0.0625 C 0.3125 -0.125 0.234375 -0.207031 0.171875 -0.3125 C 0.117188 -0.414062 0.09375 -0.535156 0.09375 -0.671875 C 0.09375 -0.796875 0.117188 -0.910156 0.171875 -1.015625 C 0.234375 -1.117188 0.304688 -1.203125 0.390625 -1.265625 C 0.484375 -1.328125 0.585938 -1.359375 0.703125 -1.359375 C 0.796875 -1.359375 0.878906 -1.335938 0.953125 -1.296875 C 1.023438 -1.265625 1.085938 -1.21875 1.140625 -1.15625 L 1.140625 -1.75 C 1.140625 -1.789062 1.148438 -1.820312 1.171875 -1.84375 C 1.191406 -1.863281 1.21875 -1.875 1.25 -1.875 Z M 0.734375 -0.203125 C 0.816406 -0.203125 0.890625 -0.21875 0.953125 -0.25 C 1.015625 -0.289062 1.0625 -0.347656 1.09375 -0.421875 C 1.125 -0.492188 1.140625 -0.578125 1.140625 -0.671875 C 1.140625 -0.753906 1.125 -0.832031 1.09375 -0.90625 C 1.0625 -0.976562 1.015625 -1.035156 0.953125 -1.078125 C 0.890625 -1.117188 0.816406 -1.140625 0.734375 -1.140625 C 0.660156 -1.140625 0.59375 -1.117188 0.53125 -1.078125 C 0.46875 -1.035156 0.414062 -0.976562 0.375 -0.90625 C 0.34375 -0.832031 0.328125 -0.753906 0.328125 -0.671875 C 0.328125 -0.578125 0.34375 -0.492188 0.375 -0.421875 C 0.414062 -0.347656 0.46875 -0.289062 0.53125 -0.25 C 0.59375 -0.21875 0.660156 -0.203125 0.734375 -0.203125 Z M 0.734375 -0.203125 "/></g></g></g><g fill="#000000" fill-opacity="1"><g transform="translate(50.930135, 46.118641)"><g><path d="M 1.34375 -0.71875 C 1.34375 -0.6875 1.328125 -0.660156 1.296875 -0.640625 C 1.273438 -0.617188 1.25 -0.609375 1.21875 -0.609375 L 0.328125 -0.609375 C 0.335938 -0.484375 0.382812 -0.382812 0.46875 -0.3125 C 0.550781 -0.238281 0.648438 -0.203125 0.765625 -0.203125 C 0.847656 -0.203125 0.914062 -0.210938 0.96875 -0.234375 C 1.019531 -0.253906 1.066406 -0.285156 1.109375 -0.328125 C 1.128906 -0.335938 1.148438 -0.34375 1.171875 -0.34375 C 1.203125 -0.34375 1.226562 -0.332031 1.25 -0.3125 C 1.269531 -0.289062 1.28125 -0.269531 1.28125 -0.25 C 1.28125 -0.207031 1.265625 -0.175781 1.234375 -0.15625 C 1.179688 -0.101562 1.113281 -0.0546875 1.03125 -0.015625 C 0.945312 0.015625 0.863281 0.03125 0.78125 0.03125 C 0.644531 0.03125 0.523438 0.00390625 0.421875 -0.046875 C 0.316406 -0.109375 0.234375 -0.191406 0.171875 -0.296875 C 0.117188 -0.398438 0.09375 -0.519531 0.09375 -0.65625 C 0.09375 -0.789062 0.117188 -0.910156 0.171875 -1.015625 C 0.234375 -1.128906 0.3125 -1.210938 0.40625 -1.265625 C 0.507812 -1.328125 0.613281 -1.359375 0.71875 -1.359375 C 0.832031 -1.359375 0.9375 -1.328125 1.03125 -1.265625 C 1.125 -1.210938 1.195312 -1.132812 1.25 -1.03125 C 1.3125 -0.9375 1.34375 -0.832031 1.34375 -0.71875 Z M 0.71875 -1.140625 C 0.625 -1.140625 0.539062 -1.109375 0.46875 -1.046875 C 0.40625 -0.992188 0.363281 -0.914062 0.34375 -0.8125 L 1.09375 -0.8125 L 1.09375 -0.828125 C 1.082031 -0.921875 1.039062 -0.992188 0.96875 -1.046875 C 0.894531 -1.109375 0.8125 -1.140625 0.71875 -1.140625 Z M 0.71875 -1.140625 "/></g></g></g><g fill="#000000" fill-opacity="1"><g transform="translate(54.026942, 46.118641)"><g><path d="M 0.109375 -0.203125 C 0.0859375 -0.234375 0.078125 -0.257812 0.078125 -0.28125 C 0.078125 -0.3125 0.0976562 -0.335938 0.140625 -0.359375 C 0.148438 -0.367188 0.164062 -0.375 0.1875 -0.375 C 0.21875 -0.375 0.25 -0.363281 0.28125 -0.34375 C 0.332031 -0.28125 0.382812 -0.234375 0.4375 -0.203125 C 0.5 -0.179688 0.566406 -0.171875 0.640625 -0.171875 C 0.710938 -0.171875 0.769531 -0.179688 0.8125 -0.203125 C 0.863281 -0.234375 0.890625 -0.28125 0.890625 -0.34375 C 0.890625 -0.40625 0.863281 -0.453125 0.8125 -0.484375 C 0.757812 -0.515625 0.6875 -0.539062 0.59375 -0.5625 C 0.5 -0.59375 0.421875 -0.617188 0.359375 -0.640625 C 0.296875 -0.671875 0.242188 -0.710938 0.203125 -0.765625 C 0.160156 -0.816406 0.140625 -0.882812 0.140625 -0.96875 C 0.140625 -1.050781 0.160156 -1.117188 0.203125 -1.171875 C 0.242188 -1.234375 0.300781 -1.28125 0.375 -1.3125 C 0.445312 -1.34375 0.523438 -1.359375 0.609375 -1.359375 C 0.691406 -1.359375 0.769531 -1.34375 0.84375 -1.3125 C 0.925781 -1.28125 0.992188 -1.234375 1.046875 -1.171875 C 1.066406 -1.148438 1.078125 -1.125 1.078125 -1.09375 C 1.078125 -1.070312 1.0625 -1.046875 1.03125 -1.015625 C 1.019531 -1.003906 1 -1 0.96875 -1 C 0.9375 -1 0.914062 -1.007812 0.90625 -1.03125 C 0.863281 -1.070312 0.816406 -1.101562 0.765625 -1.125 C 0.710938 -1.144531 0.65625 -1.15625 0.59375 -1.15625 C 0.53125 -1.15625 0.476562 -1.140625 0.4375 -1.109375 C 0.394531 -1.085938 0.375 -1.046875 0.375 -0.984375 C 0.375 -0.921875 0.394531 -0.875 0.4375 -0.84375 C 0.488281 -0.820312 0.566406 -0.796875 0.671875 -0.765625 C 0.765625 -0.742188 0.835938 -0.71875 0.890625 -0.6875 C 0.953125 -0.664062 1.003906 -0.625 1.046875 -0.5625 C 1.085938 -0.507812 1.109375 -0.441406 1.109375 -0.359375 C 1.109375 -0.285156 1.082031 -0.21875 1.03125 -0.15625 C 0.988281 -0.09375 0.929688 -0.046875 0.859375 -0.015625 C 0.785156 0.015625 0.707031 0.03125 0.625 0.03125 C 0.519531 0.03125 0.421875 0.0078125 0.328125 -0.03125 C 0.242188 -0.0703125 0.171875 -0.128906 0.109375 -0.203125 Z M 0.109375 -0.203125 "/></g></g></g><g fill="#000000" fill-opacity="1"><g transform="translate(56.888146, 46.118641)"><g><path d="M 0.40625 -0.125 C 0.40625 -0.09375 0.394531 -0.0625 0.375 -0.03125 C 0.351562 -0.0078125 0.320312 0 0.28125 0 C 0.25 0 0.222656 -0.0078125 0.203125 -0.03125 C 0.179688 -0.0625 0.171875 -0.09375 0.171875 -0.125 L 0.171875 -1.21875 C 0.171875 -1.25 0.179688 -1.273438 0.203125 -1.296875 C 0.222656 -1.328125 0.25 -1.34375 0.28125 -1.34375 C 0.320312 -1.34375 0.351562 -1.328125 0.375 -1.296875 C 0.394531 -1.273438 0.40625 -1.25 0.40625 -1.21875 Z M 0.28125 -1.5 C 0.226562 -1.5 0.191406 -1.507812 0.171875 -1.53125 C 0.148438 -1.550781 0.140625 -1.582031 0.140625 -1.625 L 0.140625 -1.65625 C 0.140625 -1.695312 0.148438 -1.722656 0.171875 -1.734375 C 0.203125 -1.753906 0.238281 -1.765625 0.28125 -1.765625 C 0.332031 -1.765625 0.367188 -1.753906 0.390625 -1.734375 C 0.410156 -1.722656 0.421875 -1.695312 0.421875 -1.65625 L 0.421875 -1.625 C 0.421875 -1.582031 0.410156 -1.550781 0.390625 -1.53125 C 0.367188 -1.507812 0.332031 -1.5 0.28125 -1.5 Z M 0.28125 -1.5 "/></g></g></g><g fill="#000000" fill-opacity="1"><g transform="translate(59.116003, 46.118641)"><g><path d="M 1.28125 -1.34375 C 1.320312 -1.34375 1.351562 -1.332031 1.375 -1.3125 C 1.394531 -1.289062 1.40625 -1.257812 1.40625 -1.21875 L 1.40625 -0.109375 C 1.40625 0.0234375 1.375 0.140625 1.3125 0.234375 C 1.257812 0.328125 1.179688 0.394531 1.078125 0.4375 C 0.984375 0.476562 0.875 0.5 0.75 0.5 C 0.675781 0.5 0.59375 0.488281 0.5 0.46875 C 0.414062 0.445312 0.363281 0.421875 0.34375 0.390625 C 0.289062 0.367188 0.265625 0.335938 0.265625 0.296875 C 0.265625 0.285156 0.265625 0.269531 0.265625 0.25 C 0.285156 0.207031 0.316406 0.1875 0.359375 0.1875 C 0.378906 0.1875 0.40625 0.191406 0.4375 0.203125 C 0.570312 0.253906 0.675781 0.28125 0.75 0.28125 C 0.882812 0.28125 0.988281 0.25 1.0625 0.1875 C 1.132812 0.125 1.171875 0.0351562 1.171875 -0.078125 L 1.171875 -0.21875 C 1.128906 -0.144531 1.066406 -0.0820312 0.984375 -0.03125 C 0.898438 0.0078125 0.8125 0.03125 0.71875 0.03125 C 0.601562 0.03125 0.5 0 0.40625 -0.0625 C 0.3125 -0.125 0.234375 -0.207031 0.171875 -0.3125 C 0.117188 -0.414062 0.09375 -0.535156 0.09375 -0.671875 C 0.09375 -0.796875 0.117188 -0.910156 0.171875 -1.015625 C 0.234375 -1.117188 0.3125 -1.203125 0.40625 -1.265625 C 0.5 -1.328125 0.601562 -1.359375 0.71875 -1.359375 C 0.8125 -1.359375 0.894531 -1.335938 0.96875 -1.296875 C 1.050781 -1.253906 1.117188 -1.203125 1.171875 -1.140625 L 1.171875 -1.21875 C 1.171875 -1.25 1.179688 -1.273438 1.203125 -1.296875 C 1.222656 -1.328125 1.25 -1.34375 1.28125 -1.34375 Z M 0.75 -0.203125 C 0.832031 -0.203125 0.90625 -0.21875 0.96875 -0.25 C 1.039062 -0.289062 1.09375 -0.347656 1.125 -0.421875 C 1.15625 -0.492188 1.171875 -0.578125 1.171875 -0.671875 C 1.171875 -0.753906 1.15625 -0.832031 1.125 -0.90625 C 1.09375 -0.976562 1.039062 -1.035156 0.96875 -1.078125 C 0.90625 -1.117188 0.832031 -1.140625 0.75 -1.140625 C 0.675781 -1.140625 0.601562 -1.117188 0.53125 -1.078125 C 0.46875 -1.035156 0.414062 -0.976562 0.375 -0.90625 C 0.34375 -0.832031 0.328125 -0.753906 0.328125 -0.671875 C 0.328125 -0.578125 0.34375 -0.492188 0.375 -0.421875 C 0.414062 -0.347656 0.46875 -0.289062 0.53125 -0.25 C 0.601562 -0.21875 0.675781 -0.203125 0.75 -0.203125 Z M 0.75 -0.203125 "/></g></g></g><g fill="#000000" fill-opacity="1"><g transform="translate(62.357214, 46.118641)"><g><path d="M 0.859375 -1.359375 C 1.160156 -1.359375 1.3125 -1.175781 1.3125 -0.8125 L 1.3125 -0.125 C 1.3125 -0.09375 1.300781 -0.0625 1.28125 -0.03125 C 1.257812 -0.0078125 1.226562 0 1.1875 0 C 1.15625 0 1.128906 -0.0078125 1.109375 -0.03125 C 1.085938 -0.0625 1.078125 -0.09375 1.078125 -0.125 L 1.078125 -0.8125 C 1.078125 -0.90625 1.050781 -0.984375 1 -1.046875 C 0.957031 -1.109375 0.882812 -1.140625 0.78125 -1.140625 C 0.707031 -1.140625 0.644531 -1.125 0.59375 -1.09375 C 0.539062 -1.0625 0.5 -1.019531 0.46875 -0.96875 C 0.4375 -0.914062 0.421875 -0.863281 0.421875 -0.8125 L 0.421875 -0.125 C 0.421875 -0.09375 0.410156 -0.0625 0.390625 -0.03125 C 0.367188 -0.0078125 0.335938 0 0.296875 0 C 0.265625 0 0.238281 -0.0078125 0.21875 -0.03125 C 0.195312 -0.0507812 0.1875 -0.0820312 0.1875 -0.125 L 0.1875 -1.203125 C 0.1875 -1.234375 0.195312 -1.257812 0.21875 -1.28125 C 0.238281 -1.3125 0.265625 -1.328125 0.296875 -1.328125 C 0.335938 -1.328125 0.367188 -1.3125 0.390625 -1.28125 C 0.410156 -1.257812 0.421875 -1.234375 0.421875 -1.203125 L 0.421875 -1.109375 C 0.460938 -1.179688 0.519531 -1.238281 0.59375 -1.28125 C 0.675781 -1.332031 0.765625 -1.359375 0.859375 -1.359375 Z M 0.859375 -1.359375 "/></g></g></g><g fill="#000000" fill-opacity="1"><g transform="translate(65.502155, 46.118641)"><g><path d="M 1.34375 -0.71875 C 1.34375 -0.6875 1.328125 -0.660156 1.296875 -0.640625 C 1.273438 -0.617188 1.25 -0.609375 1.21875 -0.609375 L 0.328125 -0.609375 C 0.335938 -0.484375 0.382812 -0.382812 0.46875 -0.3125 C 0.550781 -0.238281 0.648438 -0.203125 0.765625 -0.203125 C 0.847656 -0.203125 0.914062 -0.210938 0.96875 -0.234375 C 1.019531 -0.253906 1.066406 -0.285156 1.109375 -0.328125 C 1.128906 -0.335938 1.148438 -0.34375 1.171875 -0.34375 C 1.203125 -0.34375 1.226562 -0.332031 1.25 -0.3125 C 1.269531 -0.289062 1.28125 -0.269531 1.28125 -0.25 C 1.28125 -0.207031 1.265625 -0.175781 1.234375 -0.15625 C 1.179688 -0.101562 1.113281 -0.0546875 1.03125 -0.015625 C 0.945312 0.015625 0.863281 0.03125 0.78125 0.03125 C 0.644531 0.03125 0.523438 0.00390625 0.421875 -0.046875 C 0.316406 -0.109375 0.234375 -0.191406 0.171875 -0.296875 C 0.117188 -0.398438 0.09375 -0.519531 0.09375 -0.65625 C 0.09375 -0.789062 0.117188 -0.910156 0.171875 -1.015625 C 0.234375 -1.128906 0.3125 -1.210938 0.40625 -1.265625 C 0.507812 -1.328125 0.613281 -1.359375 0.71875 -1.359375 C 0.832031 -1.359375 0.9375 -1.328125 1.03125 -1.265625 C 1.125 -1.210938 1.195312 -1.132812 1.25 -1.03125 C 1.3125 -0.9375 1.34375 -0.832031 1.34375 -0.71875 Z M 0.71875 -1.140625 C 0.625 -1.140625 0.539062 -1.109375 0.46875 -1.046875 C 0.40625 -0.992188 0.363281 -0.914062 0.34375 -0.8125 L 1.09375 -0.8125 L 1.09375 -0.828125 C 1.082031 -0.921875 1.039062 -0.992188 0.96875 -1.046875 C 0.894531 -1.109375 0.8125 -1.140625 0.71875 -1.140625 Z M 0.71875 -1.140625 "/></g></g></g><g fill="#000000" fill-opacity="1"><g transform="translate(68.598961, 46.118641)"><g><path d="M 1.25 -1.875 C 1.289062 -1.875 1.320312 -1.863281 1.34375 -1.84375 C 1.363281 -1.820312 1.375 -1.789062 1.375 -1.75 L 1.375 -0.125 C 1.375 -0.09375 1.363281 -0.0625 1.34375 -0.03125 C 1.320312 -0.0078125 1.289062 0 1.25 0 C 1.21875 0 1.191406 -0.0078125 1.171875 -0.03125 C 1.148438 -0.0507812 1.140625 -0.0820312 1.140625 -0.125 L 1.140625 -0.1875 C 1.097656 -0.125 1.035156 -0.0703125 0.953125 -0.03125 C 0.878906 0.0078125 0.800781 0.03125 0.71875 0.03125 C 0.601562 0.03125 0.5 0 0.40625 -0.0625 C 0.3125 -0.125 0.234375 -0.207031 0.171875 -0.3125 C 0.117188 -0.414062 0.09375 -0.535156 0.09375 -0.671875 C 0.09375 -0.796875 0.117188 -0.910156 0.171875 -1.015625 C 0.234375 -1.117188 0.304688 -1.203125 0.390625 -1.265625 C 0.484375 -1.328125 0.585938 -1.359375 0.703125 -1.359375 C 0.796875 -1.359375 0.878906 -1.335938 0.953125 -1.296875 C 1.023438 -1.265625 1.085938 -1.21875 1.140625 -1.15625 L 1.140625 -1.75 C 1.140625 -1.789062 1.148438 -1.820312 1.171875 -1.84375 C 1.191406 -1.863281 1.21875 -1.875 1.25 -1.875 Z M 0.734375 -0.203125 C 0.816406 -0.203125 0.890625 -0.21875 0.953125 -0.25 C 1.015625 -0.289062 1.0625 -0.347656 1.09375 -0.421875 C 1.125 -0.492188 1.140625 -0.578125 1.140625 -0.671875 C 1.140625 -0.753906 1.125 -0.832031 1.09375 -0.90625 C 1.0625 -0.976562 1.015625 -1.035156 0.953125 -1.078125 C 0.890625 -1.117188 0.816406 -1.140625 0.734375 -1.140625 C 0.660156 -1.140625 0.59375 -1.117188 0.53125 -1.078125 C 0.46875 -1.035156 0.414062 -0.976562 0.375 -0.90625 C 0.34375 -0.832031 0.328125 -0.753906 0.328125 -0.671875 C 0.328125 -0.578125 0.34375 -0.492188 0.375 -0.421875 C 0.414062 -0.347656 0.46875 -0.289062 0.53125 -0.25 C 0.59375 -0.21875 0.660156 -0.203125 0.734375 -0.203125 Z M 0.734375 -0.203125 "/></g></g></g><g fill="#000000" fill-opacity="1"><g transform="translate(71.807238, 46.118641)"><g/></g></g><g fill="#000000" fill-opacity="1"><g transform="translate(74.161767, 46.118641)"><g><path d="M 0.84375 -1.359375 C 0.957031 -1.359375 1.0625 -1.328125 1.15625 -1.265625 C 1.25 -1.203125 1.320312 -1.117188 1.375 -1.015625 C 1.425781 -0.910156 1.453125 -0.796875 1.453125 -0.671875 C 1.453125 -0.535156 1.425781 -0.414062 1.375 -0.3125 C 1.320312 -0.207031 1.25 -0.125 1.15625 -0.0625 C 1.0625 0 0.957031 0.03125 0.84375 0.03125 C 0.757812 0.03125 0.675781 0.0078125 0.59375 -0.03125 C 0.519531 -0.0703125 0.460938 -0.117188 0.421875 -0.171875 L 0.421875 -0.109375 C 0.421875 -0.0664062 0.410156 -0.0351562 0.390625 -0.015625 C 0.367188 0.00390625 0.335938 0.015625 0.296875 0.015625 C 0.265625 0.015625 0.238281 0.00390625 0.21875 -0.015625 C 0.195312 -0.0351562 0.1875 -0.0664062 0.1875 -0.109375 L 0.1875 -1.75 C 0.1875 -1.789062 0.195312 -1.820312 0.21875 -1.84375 C 0.238281 -1.863281 0.265625 -1.875 0.296875 -1.875 C 0.335938 -1.875 0.367188 -1.859375 0.390625 -1.828125 C 0.410156 -1.804688 0.421875 -1.78125 0.421875 -1.75 L 0.421875 -1.140625 C 0.460938 -1.191406 0.519531 -1.238281 0.59375 -1.28125 C 0.675781 -1.332031 0.757812 -1.359375 0.84375 -1.359375 Z M 0.8125 -0.203125 C 0.894531 -0.203125 0.96875 -0.222656 1.03125 -0.265625 C 1.09375 -0.304688 1.140625 -0.359375 1.171875 -0.421875 C 1.203125 -0.492188 1.21875 -0.578125 1.21875 -0.671875 C 1.21875 -0.753906 1.203125 -0.832031 1.171875 -0.90625 C 1.140625 -0.976562 1.09375 -1.035156 1.03125 -1.078125 C 0.96875 -1.117188 0.894531 -1.140625 0.8125 -1.140625 C 0.738281 -1.140625 0.671875 -1.117188 0.609375 -1.078125 C 0.546875 -1.035156 0.492188 -0.976562 0.453125 -0.90625 C 0.421875 -0.832031 0.40625 -0.753906 0.40625 -0.671875 C 0.40625 -0.578125 0.421875 -0.492188 0.453125 -0.421875 C 0.492188 -0.359375 0.546875 -0.304688 0.609375 -0.265625 C 0.671875 -0.222656 0.738281 -0.203125 0.8125 -0.203125 Z M 0.8125 -0.203125 "/></g></g></g><g fill="#000000" fill-opacity="1"><g transform="translate(77.370046, 46.118641)"><g><path d="M 1.171875 -1.34375 C 1.203125 -1.34375 1.226562 -1.328125 1.25 -1.296875 C 1.269531 -1.273438 1.28125 -1.25 1.28125 -1.21875 L 1.28125 -0.125 C 1.28125 0.0820312 1.222656 0.238281 1.109375 0.34375 C 0.992188 0.445312 0.84375 0.5 0.65625 0.5 C 0.59375 0.5 0.53125 0.492188 0.46875 0.484375 C 0.40625 0.472656 0.351562 0.457031 0.3125 0.4375 C 0.25 0.40625 0.21875 0.367188 0.21875 0.328125 C 0.21875 0.316406 0.222656 0.304688 0.234375 0.296875 C 0.242188 0.265625 0.253906 0.238281 0.265625 0.21875 C 0.285156 0.207031 0.3125 0.203125 0.34375 0.203125 C 0.351562 0.203125 0.363281 0.203125 0.375 0.203125 C 0.425781 0.234375 0.472656 0.253906 0.515625 0.265625 C 0.554688 0.273438 0.601562 0.28125 0.65625 0.28125 C 0.914062 0.28125 1.046875 0.148438 1.046875 -0.109375 L 1.046875 -0.171875 C 1.003906 -0.109375 0.945312 -0.0546875 0.875 -0.015625 C 0.800781 0.015625 0.71875 0.03125 0.625 0.03125 C 0.488281 0.03125 0.378906 -0.015625 0.296875 -0.109375 C 0.222656 -0.203125 0.1875 -0.316406 0.1875 -0.453125 L 0.1875 -1.21875 C 0.1875 -1.25 0.195312 -1.273438 0.21875 -1.296875 C 0.238281 -1.328125 0.265625 -1.34375 0.296875 -1.34375 C 0.335938 -1.34375 0.367188 -1.328125 0.390625 -1.296875 C 0.410156 -1.273438 0.421875 -1.25 0.421875 -1.21875 L 0.421875 -0.53125 C 0.421875 -0.414062 0.441406 -0.332031 0.484375 -0.28125 C 0.535156 -0.226562 0.613281 -0.203125 0.71875 -0.203125 C 0.8125 -0.203125 0.890625 -0.226562 0.953125 -0.28125 C 1.015625 -0.34375 1.046875 -0.425781 1.046875 -0.53125 L 1.046875 -1.21875 C 1.046875 -1.25 1.054688 -1.273438 1.078125 -1.296875 C 1.097656 -1.328125 1.128906 -1.34375 1.171875 -1.34375 Z M 1.171875 -1.34375 "/></g></g></g><g fill="#000000" fill-opacity="1"><g transform="translate(50.367647, 49.623303)"><g><path d="M 1.53125 -1.765625 C 1.550781 -1.765625 1.566406 -1.757812 1.578125 -1.75 C 1.597656 -1.738281 1.609375 -1.722656 1.609375 -1.703125 L 1.609375 -0.078125 C 1.609375 -0.0546875 1.597656 -0.0351562 1.578125 -0.015625 C 1.566406 -0.00390625 1.550781 0 1.53125 0 C 1.519531 0 1.503906 0 1.484375 0 C 1.472656 -0.0078125 1.46875 -0.0195312 1.46875 -0.03125 L 0.375 -1.484375 L 0.375 -0.0625 C 0.375 -0.0507812 0.367188 -0.0351562 0.359375 -0.015625 C 0.347656 -0.00390625 0.332031 0 0.3125 0 C 0.289062 0 0.269531 -0.00390625 0.25 -0.015625 C 0.238281 -0.0351562 0.234375 -0.0507812 0.234375 -0.0625 L 0.234375 -1.703125 C 0.234375 -1.722656 0.238281 -1.738281 0.25 -1.75 C 0.269531 -1.757812 0.289062 -1.765625 0.3125 -1.765625 C 0.34375 -1.765625 0.363281 -1.757812 0.375 -1.75 L 1.46875 -0.265625 L 1.46875 -1.703125 C 1.46875 -1.722656 1.472656 -1.738281 1.484375 -1.75 C 1.492188 -1.757812 1.507812 -1.765625 1.53125 -1.765625 Z M 1.53125 -1.765625 "/></g></g></g><g fill="#000000" fill-opacity="1"><g transform="translate(53.864728, 49.623303)"><g><path d="M 1.25 -1.296875 C 1.269531 -1.296875 1.285156 -1.285156 1.296875 -1.265625 C 1.316406 -1.253906 1.328125 -1.238281 1.328125 -1.21875 L 1.328125 -0.078125 C 1.328125 -0.0546875 1.316406 -0.0351562 1.296875 -0.015625 C 1.285156 -0.00390625 1.269531 0 1.25 0 C 1.226562 0 1.207031 -0.00390625 1.1875 -0.015625 C 1.175781 -0.0351562 1.171875 -0.0546875 1.171875 -0.078125 L 1.171875 -0.25 C 1.128906 -0.164062 1.066406 -0.0976562 0.984375 -0.046875 C 0.898438 0.00390625 0.804688 0.03125 0.703125 0.03125 C 0.597656 0.03125 0.5 0 0.40625 -0.0625 C 0.3125 -0.125 0.238281 -0.203125 0.1875 -0.296875 C 0.132812 -0.398438 0.109375 -0.519531 0.109375 -0.65625 C 0.109375 -0.78125 0.132812 -0.894531 0.1875 -1 C 0.238281 -1.101562 0.3125 -1.179688 0.40625 -1.234375 C 0.5 -1.296875 0.597656 -1.328125 0.703125 -1.328125 C 0.804688 -1.328125 0.898438 -1.300781 0.984375 -1.25 C 1.066406 -1.195312 1.128906 -1.132812 1.171875 -1.0625 L 1.171875 -1.21875 C 1.171875 -1.238281 1.175781 -1.253906 1.1875 -1.265625 C 1.207031 -1.285156 1.226562 -1.296875 1.25 -1.296875 Z M 0.71875 -0.109375 C 0.8125 -0.109375 0.890625 -0.128906 0.953125 -0.171875 C 1.023438 -0.222656 1.082031 -0.289062 1.125 -0.375 C 1.164062 -0.457031 1.1875 -0.550781 1.1875 -0.65625 C 1.1875 -0.75 1.164062 -0.835938 1.125 -0.921875 C 1.082031 -1.003906 1.023438 -1.066406 0.953125 -1.109375 C 0.890625 -1.160156 0.8125 -1.1875 0.71875 -1.1875 C 0.632812 -1.1875 0.554688 -1.160156 0.484375 -1.109375 C 0.410156 -1.066406 0.351562 -1.003906 0.3125 -0.921875 C 0.28125 -0.847656 0.265625 -0.757812 0.265625 -0.65625 C 0.265625 -0.550781 0.28125 -0.457031 0.3125 -0.375 C 0.351562 -0.289062 0.410156 -0.222656 0.484375 -0.171875 C 0.554688 -0.128906 0.632812 -0.109375 0.71875 -0.109375 Z M 0.71875 -0.109375 "/></g></g></g><g fill="#000000" fill-opacity="1"><g transform="translate(57.042602, 49.623303)"><g><path d="M 0.8125 -1.328125 C 0.96875 -1.328125 1.082031 -1.28125 1.15625 -1.1875 C 1.226562 -1.09375 1.265625 -0.96875 1.265625 -0.8125 L 1.265625 -0.078125 C 1.265625 -0.0546875 1.253906 -0.0351562 1.234375 -0.015625 C 1.222656 -0.00390625 1.207031 0 1.1875 0 C 1.164062 0 1.144531 -0.00390625 1.125 -0.015625 C 1.113281 -0.0351562 1.109375 -0.0546875 1.109375 -0.078125 L 1.109375 -0.8125 C 1.109375 -0.925781 1.082031 -1.015625 1.03125 -1.078125 C 0.976562 -1.148438 0.894531 -1.1875 0.78125 -1.1875 C 0.707031 -1.1875 0.632812 -1.164062 0.5625 -1.125 C 0.5 -1.09375 0.445312 -1.046875 0.40625 -0.984375 C 0.375 -0.929688 0.359375 -0.875 0.359375 -0.8125 L 0.359375 -0.078125 C 0.359375 -0.0546875 0.347656 -0.0351562 0.328125 -0.015625 C 0.316406 -0.00390625 0.300781 0 0.28125 0 C 0.257812 0 0.238281 -0.00390625 0.21875 -0.015625 C 0.207031 -0.0351562 0.203125 -0.0546875 0.203125 -0.078125 L 0.203125 -1.203125 C 0.203125 -1.234375 0.207031 -1.253906 0.21875 -1.265625 C 0.238281 -1.273438 0.257812 -1.28125 0.28125 -1.28125 C 0.300781 -1.28125 0.316406 -1.273438 0.328125 -1.265625 C 0.347656 -1.253906 0.359375 -1.234375 0.359375 -1.203125 L 0.359375 -1.078125 C 0.398438 -1.140625 0.460938 -1.195312 0.546875 -1.25 C 0.628906 -1.300781 0.71875 -1.328125 0.8125 -1.328125 Z M 0.8125 -1.328125 "/></g></g></g><g fill="#000000" fill-opacity="1"><g transform="translate(60.159676, 49.623303)"><g><path d="M 1.25 -1.875 C 1.269531 -1.875 1.285156 -1.863281 1.296875 -1.84375 C 1.316406 -1.832031 1.328125 -1.816406 1.328125 -1.796875 L 1.328125 -0.078125 C 1.328125 -0.0546875 1.316406 -0.0351562 1.296875 -0.015625 C 1.285156 -0.00390625 1.269531 0 1.25 0 C 1.226562 0 1.207031 -0.00390625 1.1875 -0.015625 C 1.175781 -0.0351562 1.171875 -0.0546875 1.171875 -0.078125 L 1.171875 -0.25 C 1.128906 -0.175781 1.066406 -0.109375 0.984375 -0.046875 C 0.898438 0.00390625 0.804688 0.03125 0.703125 0.03125 C 0.597656 0.03125 0.5 0 0.40625 -0.0625 C 0.3125 -0.125 0.238281 -0.203125 0.1875 -0.296875 C 0.132812 -0.398438 0.109375 -0.519531 0.109375 -0.65625 C 0.109375 -0.78125 0.132812 -0.894531 0.1875 -1 C 0.238281 -1.101562 0.3125 -1.179688 0.40625 -1.234375 C 0.5 -1.296875 0.597656 -1.328125 0.703125 -1.328125 C 0.804688 -1.328125 0.898438 -1.300781 0.984375 -1.25 C 1.066406 -1.195312 1.128906 -1.132812 1.171875 -1.0625 L 1.171875 -1.796875 C 1.171875 -1.816406 1.175781 -1.832031 1.1875 -1.84375 C 1.207031 -1.863281 1.226562 -1.875 1.25 -1.875 Z M 0.71875 -0.109375 C 0.8125 -0.109375 0.890625 -0.128906 0.953125 -0.171875 C 1.023438 -0.222656 1.082031 -0.289062 1.125 -0.375 C 1.164062 -0.457031 1.1875 -0.550781 1.1875 -0.65625 C 1.1875 -0.75 1.164062 -0.835938 1.125 -0.921875 C 1.082031 -1.003906 1.023438 -1.066406 0.953125 -1.109375 C 0.890625 -1.160156 0.8125 -1.1875 0.71875 -1.1875 C 0.632812 -1.1875 0.554688 -1.160156 0.484375 -1.109375 C 0.410156 -1.066406 0.351562 -1.003906 0.3125 -0.921875 C 0.28125 -0.835938 0.265625 -0.75 0.265625 -0.65625 C 0.265625 -0.550781 0.28125 -0.457031 0.3125 -0.375 C 0.351562 -0.289062 0.410156 -0.222656 0.484375 -0.171875 C 0.554688 -0.128906 0.632812 -0.109375 0.71875 -0.109375 Z M 0.71875 -0.109375 "/></g></g></g><g fill="#000000" fill-opacity="1"><g transform="translate(63.337551, 49.623303)"><g><path d="M 1.390625 -0.640625 C 1.390625 -0.515625 1.363281 -0.398438 1.3125 -0.296875 C 1.257812 -0.203125 1.179688 -0.125 1.078125 -0.0625 C 0.984375 0 0.875 0.03125 0.75 0.03125 C 0.632812 0.03125 0.523438 0 0.421875 -0.0625 C 0.328125 -0.125 0.25 -0.203125 0.1875 -0.296875 C 0.132812 -0.398438 0.109375 -0.515625 0.109375 -0.640625 C 0.109375 -0.773438 0.132812 -0.890625 0.1875 -0.984375 C 0.25 -1.085938 0.328125 -1.171875 0.421875 -1.234375 C 0.523438 -1.296875 0.632812 -1.328125 0.75 -1.328125 C 0.875 -1.328125 0.984375 -1.296875 1.078125 -1.234375 C 1.179688 -1.171875 1.257812 -1.085938 1.3125 -0.984375 C 1.363281 -0.890625 1.390625 -0.773438 1.390625 -0.640625 Z M 1.25 -0.640625 C 1.25 -0.742188 1.222656 -0.835938 1.171875 -0.921875 C 1.128906 -1.003906 1.070312 -1.066406 1 -1.109375 C 0.925781 -1.160156 0.84375 -1.1875 0.75 -1.1875 C 0.664062 -1.1875 0.582031 -1.160156 0.5 -1.109375 C 0.425781 -1.066406 0.367188 -1.003906 0.328125 -0.921875 C 0.285156 -0.835938 0.265625 -0.742188 0.265625 -0.640625 C 0.265625 -0.546875 0.285156 -0.457031 0.328125 -0.375 C 0.367188 -0.289062 0.425781 -0.222656 0.5 -0.171875 C 0.582031 -0.128906 0.664062 -0.109375 0.75 -0.109375 C 0.84375 -0.109375 0.925781 -0.128906 1 -0.171875 C 1.070312 -0.222656 1.128906 -0.289062 1.171875 -0.375 C 1.222656 -0.457031 1.25 -0.546875 1.25 -0.640625 Z M 1.25 -0.640625 "/></g></g></g><g fill="#000000" fill-opacity="1"><g transform="translate(66.497693, 49.623303)"><g><path d="M 0.21875 0 C 0.1875 0 0.160156 -0.00390625 0.140625 -0.015625 C 0.128906 -0.0351562 0.125 -0.0625 0.125 -0.09375 L 0.125 -0.15625 C 0.125 -0.1875 0.128906 -0.207031 0.140625 -0.21875 C 0.160156 -0.238281 0.1875 -0.25 0.21875 -0.25 L 0.234375 -0.25 C 0.265625 -0.25 0.285156 -0.238281 0.296875 -0.21875 C 0.316406 -0.207031 0.328125 -0.1875 0.328125 -0.15625 L 0.328125 -0.09375 C 0.328125 -0.0625 0.316406 -0.0351562 0.296875 -0.015625 C 0.285156 -0.00390625 0.265625 0 0.234375 0 Z M 0.21875 0 "/></g></g></g><g fill="#000000" fill-opacity="1"><g transform="translate(68.609016, 49.623303)"><g><path d="M 1.25 -1.875 C 1.269531 -1.875 1.285156 -1.863281 1.296875 -1.84375 C 1.316406 -1.832031 1.328125 -1.816406 1.328125 -1.796875 L 1.328125 -0.078125 C 1.328125 -0.0546875 1.316406 -0.0351562 1.296875 -0.015625 C 1.285156 -0.00390625 1.269531 0 1.25 0 C 1.226562 0 1.207031 -0.00390625 1.1875 -0.015625 C 1.175781 -0.0351562 1.171875 -0.0546875 1.171875 -0.078125 L 1.171875 -0.25 C 1.128906 -0.175781 1.066406 -0.109375 0.984375 -0.046875 C 0.898438 0.00390625 0.804688 0.03125 0.703125 0.03125 C 0.597656 0.03125 0.5 0 0.40625 -0.0625 C 0.3125 -0.125 0.238281 -0.203125 0.1875 -0.296875 C 0.132812 -0.398438 0.109375 -0.519531 0.109375 -0.65625 C 0.109375 -0.78125 0.132812 -0.894531 0.1875 -1 C 0.238281 -1.101562 0.3125 -1.179688 0.40625 -1.234375 C 0.5 -1.296875 0.597656 -1.328125 0.703125 -1.328125 C 0.804688 -1.328125 0.898438 -1.300781 0.984375 -1.25 C 1.066406 -1.195312 1.128906 -1.132812 1.171875 -1.0625 L 1.171875 -1.796875 C 1.171875 -1.816406 1.175781 -1.832031 1.1875 -1.84375 C 1.207031 -1.863281 1.226562 -1.875 1.25 -1.875 Z M 0.71875 -0.109375 C 0.8125 -0.109375 0.890625 -0.128906 0.953125 -0.171875 C 1.023438 -0.222656 1.082031 -0.289062 1.125 -0.375 C 1.164062 -0.457031 1.1875 -0.550781 1.1875 -0.65625 C 1.1875 -0.75 1.164062 -0.835938 1.125 -0.921875 C 1.082031 -1.003906 1.023438 -1.066406 0.953125 -1.109375 C 0.890625 -1.160156 0.8125 -1.1875 0.71875 -1.1875 C 0.632812 -1.1875 0.554688 -1.160156 0.484375 -1.109375 C 0.410156 -1.066406 0.351562 -1.003906 0.3125 -0.921875 C 0.28125 -0.835938 0.265625 -0.75 0.265625 -0.65625 C 0.265625 -0.550781 0.28125 -0.457031 0.3125 -0.375 C 0.351562 -0.289062 0.410156 -0.222656 0.484375 -0.171875 C 0.554688 -0.128906 0.632812 -0.109375 0.71875 -0.109375 Z M 0.71875 -0.109375 "/></g></g></g><g fill="#000000" fill-opacity="1"><g transform="translate(71.78689, 49.623303)"><g><path d="M 1.296875 -0.71875 C 1.296875 -0.695312 1.285156 -0.675781 1.265625 -0.65625 C 1.253906 -0.644531 1.238281 -0.640625 1.21875 -0.640625 L 0.265625 -0.640625 C 0.265625 -0.546875 0.285156 -0.457031 0.328125 -0.375 C 0.367188 -0.289062 0.425781 -0.222656 0.5 -0.171875 C 0.570312 -0.128906 0.660156 -0.109375 0.765625 -0.109375 C 0.847656 -0.109375 0.921875 -0.125 0.984375 -0.15625 C 1.046875 -0.195312 1.097656 -0.242188 1.140625 -0.296875 C 1.160156 -0.304688 1.179688 -0.3125 1.203125 -0.3125 C 1.210938 -0.3125 1.222656 -0.304688 1.234375 -0.296875 C 1.253906 -0.285156 1.265625 -0.269531 1.265625 -0.25 C 1.265625 -0.226562 1.253906 -0.210938 1.234375 -0.203125 C 1.179688 -0.128906 1.113281 -0.0703125 1.03125 -0.03125 C 0.945312 0.0078125 0.863281 0.03125 0.78125 0.03125 C 0.644531 0.03125 0.523438 0.00390625 0.421875 -0.046875 C 0.328125 -0.109375 0.25 -0.1875 0.1875 -0.28125 C 0.132812 -0.382812 0.109375 -0.503906 0.109375 -0.640625 C 0.109375 -0.773438 0.132812 -0.894531 0.1875 -1 C 0.25 -1.101562 0.320312 -1.179688 0.40625 -1.234375 C 0.5 -1.296875 0.597656 -1.328125 0.703125 -1.328125 C 0.804688 -1.328125 0.898438 -1.300781 0.984375 -1.25 C 1.078125 -1.207031 1.148438 -1.140625 1.203125 -1.046875 C 1.265625 -0.953125 1.296875 -0.84375 1.296875 -0.71875 Z M 0.703125 -1.171875 C 0.609375 -1.171875 0.519531 -1.132812 0.4375 -1.0625 C 0.351562 -1 0.296875 -0.90625 0.265625 -0.78125 L 1.140625 -0.78125 L 1.140625 -0.8125 C 1.128906 -0.882812 1.101562 -0.945312 1.0625 -1 C 1.019531 -1.0625 0.96875 -1.101562 0.90625 -1.125 C 0.84375 -1.15625 0.773438 -1.171875 0.703125 -1.171875 Z M 0.703125 -1.171875 "/></g></g></g><g fill="#000000" fill-opacity="1"><g transform="translate(74.84823, 49.623303)"><g><path d="M 1.171875 -1.3125 C 1.191406 -1.3125 1.207031 -1.304688 1.21875 -1.296875 C 1.238281 -1.285156 1.25 -1.269531 1.25 -1.25 C 1.25 -1.238281 1.242188 -1.226562 1.234375 -1.21875 L 0.734375 -0.046875 C 0.734375 -0.0351562 0.722656 -0.0234375 0.703125 -0.015625 C 0.691406 -0.00390625 0.679688 0 0.671875 0 C 0.648438 0 0.632812 0 0.625 0 C 0.613281 -0.0078125 0.601562 -0.0234375 0.59375 -0.046875 L 0.09375 -1.21875 C 0.09375 -1.226562 0.09375 -1.238281 0.09375 -1.25 C 0.09375 -1.269531 0.0976562 -1.285156 0.109375 -1.296875 C 0.117188 -1.316406 0.140625 -1.328125 0.171875 -1.328125 C 0.179688 -1.328125 0.191406 -1.320312 0.203125 -1.3125 C 0.222656 -1.300781 0.234375 -1.285156 0.234375 -1.265625 L 0.671875 -0.25 L 1.109375 -1.265625 C 1.109375 -1.285156 1.113281 -1.300781 1.125 -1.3125 C 1.144531 -1.320312 1.160156 -1.320312 1.171875 -1.3125 Z M 1.171875 -1.3125 "/></g></g></g></svg>